<svg width="97" height="61" viewBox="0 0 97 61" fill="none" xmlns="http://www.w3.org/2000/svg">
<path d="M23.859 55.8676C24.1045 57.3 23.1427 58.6711 21.7102 58.9371L14.7525 60.165C13.32 60.4106 11.949 59.4692 11.6829 58.0163L8.55195 40.2127C8.30638 38.7802 9.26816 37.4091 10.7006 37.1431L17.6379 35.9152C19.0704 35.6697 20.4415 36.6315 20.7075 38.064L23.8385 55.8676H23.859Z" fill="#40543E"/>
<path d="M60.5533 23.5547C58.6092 21.6107 55.4373 21.6107 53.4932 23.5547C51.5491 25.4988 51.5491 28.6503 53.4932 30.5943C55.4373 32.5384 58.6092 32.5384 60.5533 30.5943C62.4973 28.6503 62.4973 25.4989 60.5533 23.5343V23.5547Z" fill="#4E7678"/>
<path d="M25.1494 12.9319V33.6823H52.8371V1.63574C47.9872 7.18147 41.6229 11.172 34.3991 12.6044C31.2476 13.2388 28.1371 13.3206 25.1699 12.9523L25.1494 12.9319Z" fill="white"/>
<path d="M25.7846 12.873H10.5799C4.74763 12.873 0 17.6002 0 23.4529V30.7176C0 36.5498 4.72717 41.2975 10.5799 41.2975H25.7846V12.873V12.873Z" fill="#4E7678"/>
<path d="M54.2087 54.1885C52.8786 54.1885 51.8145 52.9606 51.8145 51.4463V2.74216C51.8145 1.22783 52.8786 0 54.2087 0H56.603C57.9332 0 58.9973 1.22783 58.9973 2.74216V51.4463C58.9973 52.9606 57.9127 54.1885 56.603 54.1885H54.2087Z" fill="#20E9FD"/>
<path d="M52.8176 52.4706V26.9316H25.1299V41.154C28.0972 40.7857 31.2077 40.8676 34.3591 41.502C41.5829 42.9344 47.9676 46.9249 52.7971 52.4706H52.8176Z" fill="#7DFB68"/>
<path d="M25.7846 26.9316H0V30.7174C0 36.5496 4.72717 41.2973 10.5799 41.2973H25.7846V26.9316V26.9316Z" fill="#40543E"/>
<path d="M58.9973 51.4474V26.9316H51.8145V51.4474C51.8145 52.9617 52.8786 54.1896 54.2087 54.1896H56.603C57.9332 54.1896 58.9973 52.9617 58.9973 51.4474V51.4474Z" fill="#18DEBF"/>
<path d="M14.1003 43.5274C13.9161 42.6065 13.0362 41.9926 12.1153 42.1563C11.1944 42.32 10.5805 43.2204 10.7442 44.1413L13.1999 57.3814C13.384 58.3023 14.264 58.9162 15.1849 58.7525C16.1057 58.5888 16.7197 57.6884 16.5559 56.7675L14.1003 43.5274Z" fill="#4E7678"/>
<path d="M95.9176 27.7088H68.0048C67.7388 27.7088 67.5137 27.4837 67.5137 27.2177C67.5137 26.9516 67.7388 26.7266 68.0048 26.7266H95.9176C96.1836 26.7266 96.4087 26.9516 96.4087 27.2177C96.4087 27.4837 96.1836 27.7088 95.9176 27.7088Z" fill="white"/>
<path d="M67.4935 21.6921C67.3093 21.6921 67.1456 21.5897 67.0637 21.426C66.941 21.1805 67.0433 20.8939 67.2889 20.7712L92.3367 8.4519C92.5823 8.32911 92.8688 8.45187 92.9915 8.67697C93.1143 8.92254 92.9915 9.20905 92.7664 9.33183L67.7186 21.6307C67.7186 21.6307 67.5753 21.6716 67.514 21.6716L67.4935 21.6921Z" fill="white"/>
<path d="M92.5413 46.0237C92.5413 46.0237 92.3981 46.0237 92.3367 45.9828L67.2889 33.6839C67.0433 33.5611 66.941 33.2746 67.0637 33.0291C67.1865 32.7835 67.473 32.6812 67.7186 32.804L92.7664 45.1028C93.012 45.2256 93.1143 45.5121 92.9915 45.7576C92.9097 45.9213 92.746 46.0237 92.5618 46.0237H92.5413Z" fill="white"/>
</svg>
