<svg width="56" height="67" viewBox="0 0 56 67" fill="none" xmlns="http://www.w3.org/2000/svg">
<path d="M55.3331 36.7488C55.3331 52.037 42.9463 64.4238 27.658 64.4238C12.3697 64.4238 0 52.037 0 36.7488C0 21.4605 12.3867 9.07373 27.658 9.07373C42.9294 9.07373 55.3331 21.4605 55.3331 36.7488V36.7488Z" fill="#20E9FD"/>
<path d="M27.674 9.07373C42.9622 9.07373 55.349 21.4605 55.349 36.7488C55.349 52.037 42.9622 64.4238 27.674 64.4238V9.07373Z" fill="#18DEBF"/>
<path d="M49.1907 36.7475C49.1907 48.6252 39.5528 58.2631 27.6751 58.2631C15.7974 58.2631 6.15955 48.6252 6.15955 36.7475C6.15955 24.8698 15.7974 15.2319 27.6751 15.2319C39.5528 15.2319 49.1907 24.8698 49.1907 36.7475Z" fill="white"/>
<path d="M8.45022 38.276C8.45022 26.3983 18.0881 16.7604 29.9658 16.7604C33.8854 16.7604 37.5506 17.8124 40.7236 19.645C37.0925 16.8792 32.5789 15.2163 27.6582 15.2163C15.7805 15.2163 6.14258 24.8542 6.14258 36.7319C6.14258 44.7069 10.4694 51.6469 16.9173 55.3629C11.776 51.4263 8.45022 45.2329 8.45022 38.259V38.276Z" fill="#7DFB68"/>
<path d="M31.5101 36.7474C31.5101 38.8684 29.7963 40.5822 27.6583 40.5822C25.5203 40.5822 23.8235 38.8684 23.8235 36.7474C23.8235 34.6264 25.5543 32.9126 27.6583 32.9126C29.7623 32.9126 31.5101 34.6264 31.5101 36.7474Z" fill="#4E7678"/>
<path d="M27.676 37.7661C27.116 37.7661 26.6578 37.308 26.6578 36.748V21.4937C26.6578 20.9337 27.116 20.4756 27.676 20.4756C28.2359 20.4756 28.694 20.9337 28.694 21.4937V36.748C28.694 37.308 28.2359 37.7661 27.676 37.7661V37.7661Z" fill="#4E7678"/>
<path d="M36.8202 21.4086C36.7354 21.4086 36.6506 21.3916 36.5657 21.3407C36.3282 21.205 36.2434 20.8826 36.3791 20.645L36.973 19.6269C37.1087 19.3894 37.4311 19.3045 37.6686 19.4403C37.9062 19.576 37.9911 19.8984 37.8553 20.136L37.2614 21.1541C37.1596 21.3237 36.9899 21.4086 36.8202 21.4086V21.4086Z" fill="#4E7678"/>
<path d="M17.9174 54.1401C17.8325 54.1401 17.7476 54.1231 17.6628 54.0722C17.4252 53.9365 17.3404 53.6141 17.4762 53.3765L18.07 52.3415C18.2058 52.1039 18.5282 52.0021 18.7658 52.1548C19.0033 52.2906 19.0881 52.613 18.9524 52.8505L18.3585 53.8856C18.2567 54.0553 18.087 54.1401 17.9174 54.1401Z" fill="#4E7678"/>
<path d="M44.5407 46.9966C44.4558 46.9966 44.371 46.9796 44.2861 46.9287L43.2681 46.3348C43.0305 46.1991 42.9286 45.8767 43.0813 45.6391C43.2171 45.4016 43.5395 45.3167 43.7771 45.4525L44.7951 46.0464C45.0497 46.1821 45.1346 46.5045 44.9819 46.7421C44.8801 46.9117 44.7104 46.9966 44.5407 46.9966Z" fill="#4E7678"/>
<path d="M11.8259 28.0952C11.7411 28.0952 11.6563 28.0782 11.5715 28.0273L10.5363 27.4335C10.2988 27.2977 10.214 26.9753 10.3497 26.7378C10.4854 26.5002 10.8079 26.4154 11.0455 26.5511L12.0805 27.145C12.318 27.2807 12.4029 27.6031 12.2671 27.8407C12.1653 28.0104 11.9956 28.0952 11.8259 28.0952Z" fill="#4E7678"/>
<path d="M18.5112 21.4086C18.3245 21.4086 18.1549 21.3237 18.07 21.1541L17.4762 20.136C17.3404 19.8984 17.4252 19.576 17.6628 19.4403C17.9173 19.3045 18.2228 19.3894 18.3585 19.6269L18.9524 20.645C19.0881 20.8995 19.0033 21.205 18.7658 21.3407C18.6809 21.3916 18.596 21.4086 18.5112 21.4086V21.4086Z" fill="#4E7678"/>
<path d="M37.414 54.1392C37.2443 54.1392 37.0746 54.0544 36.9728 53.8847L36.3789 52.8497C36.2432 52.6121 36.311 52.2897 36.5656 52.154C36.8031 52.0182 37.1255 52.0861 37.2612 52.3406L37.8552 53.3757C38.0079 53.6132 37.923 53.9356 37.6684 54.0714C37.5836 54.1223 37.4988 54.1392 37.414 54.1392Z" fill="#4E7678"/>
<path d="M10.7909 46.9966C10.6042 46.9966 10.4345 46.9117 10.3497 46.7421C10.214 46.5045 10.2988 46.1821 10.5363 46.0464L11.5715 45.4525C11.826 45.3167 12.1314 45.4016 12.2671 45.6391C12.4029 45.8767 12.318 46.1991 12.0805 46.3348L11.0455 46.9117C11.0455 46.9117 10.8757 46.9796 10.7909 46.9796V46.9966Z" fill="#4E7678"/>
<path d="M43.5229 28.0952C43.3532 28.0952 43.1666 28.0104 43.0817 27.8407C42.946 27.6031 43.0309 27.2807 43.2685 27.145L44.2865 26.5511C44.5241 26.4154 44.8465 26.5002 44.9823 26.7378C45.118 26.9753 45.0331 27.2977 44.7955 27.4335L43.7775 28.0273C43.7775 28.0273 43.6078 28.0952 43.5229 28.0952Z" fill="#4E7678"/>
<path d="M9.36722 37.2569H8.17954C7.89108 37.2569 7.67041 37.0193 7.67041 36.7478C7.67041 36.4763 7.89108 36.2388 8.17954 36.2388H9.36722C9.65568 36.2388 9.87635 36.4763 9.87635 36.7478C9.87635 37.0193 9.63871 37.2569 9.36722 37.2569Z" fill="#4E7678"/>
<path d="M45.9669 37.2569C45.6785 37.2569 45.4579 37.0363 45.4579 36.7478C45.4579 36.4594 45.6785 36.2388 45.9669 36.2388H47.1547C47.4432 36.2388 47.6637 36.4594 47.6637 36.7478C47.6637 37.0363 47.4432 37.2569 47.1547 37.2569H45.9669Z" fill="#4E7678"/>
<path d="M27.6763 56.7352C27.3878 56.7352 27.1672 56.4976 27.1672 56.2261V55.0383C27.1672 54.7499 27.4048 54.5293 27.6932 54.5293C27.9817 54.5293 28.2023 54.7669 28.2023 55.0383V56.2261C28.2023 56.5146 27.9647 56.7352 27.6932 56.7352H27.6763Z" fill="#4E7678"/>
<path d="M27.6763 18.9476C27.3878 18.9476 27.1672 18.727 27.1672 18.4385V17.2507C27.1672 16.9623 27.4048 16.7417 27.6763 16.7417C27.9477 16.7417 28.1853 16.9793 28.1853 17.2507V18.4385C28.1853 18.727 27.9647 18.9476 27.6763 18.9476Z" fill="#4E7678"/>
<path d="M20.9907 44.4349C20.7362 44.4349 20.4647 44.3331 20.2611 44.1295C19.8708 43.7222 19.8708 43.0774 20.2611 42.6872L26.675 36.2732C27.0822 35.866 27.7271 35.883 28.1173 36.2732C28.5246 36.6805 28.5246 37.3252 28.1173 37.7325L21.7033 44.1464C21.4997 44.35 21.2452 44.4519 20.9737 44.4519L20.9907 44.4349Z" fill="#4E7678"/>
<path d="M30.0346 36.7486C30.0346 38.0551 28.9827 39.1241 27.6591 39.1241C26.3356 39.1241 25.2836 38.0551 25.2836 36.7486C25.2836 35.442 26.3356 34.373 27.6591 34.373C28.9827 34.373 30.0346 35.4251 30.0346 36.7486Z" fill="white"/>
<path d="M28.8459 36.7489C28.8459 37.3937 28.3199 37.9197 27.6751 37.9197C27.0303 37.9197 26.5043 37.3937 26.5043 36.7489C26.5043 36.1041 27.0303 35.5781 27.6751 35.5781C28.3199 35.5781 28.8459 36.1041 28.8459 36.7489Z" fill="#20E9FD"/>
<path d="M27.674 37.2574C27.4535 37.2574 27.2498 37.1217 27.1819 36.9011C27.0971 36.6296 27.2498 36.3412 27.5213 36.2563L40.8243 32.2349C41.0958 32.15 41.3843 32.3028 41.4691 32.5742C41.554 32.8457 41.4012 33.1342 41.1298 33.219L27.8267 37.2405C27.8267 37.2405 27.7249 37.2574 27.674 37.2574Z" fill="#20E9FD"/>
<path d="M2.44703 17.8311C-1.06537 12.571 0.342959 5.46138 5.60308 1.93201C10.8632 -1.58039 17.9728 -0.172038 21.5022 5.08808L2.44703 17.8142V17.8311Z" fill="#20E9FD"/>
<path d="M12.1015 7.937L8.65942 10.2378L13.6099 17.6439L17.052 15.3431L12.1015 7.937Z" fill="#20E9FD"/>
<path d="M52.8917 17.8311C56.4041 12.571 54.9958 5.46138 49.7356 1.93201C44.4755 -1.58039 37.3658 -0.172038 33.8534 5.08808L52.8917 17.8311V17.8311Z" fill="#18DEBF"/>
<path d="M43.1998 7.90412L38.2455 15.3076L41.6863 17.6102L46.6407 10.2067L43.1998 7.90412Z" fill="#18DEBF"/>
<path d="M13.3555 65.9517C12.6938 66.868 11.4212 67.0716 10.5049 66.4098C9.58862 65.7481 9.38497 64.4755 10.0467 63.5592L13.4404 58.876C14.1021 57.9597 15.3747 57.7561 16.291 58.4178C17.2073 59.0796 17.394 60.3522 16.7492 61.2685L13.3555 65.9517Z" fill="#20E9FD"/>
<path d="M41.9804 65.9517C42.6422 66.868 43.9147 67.0716 44.831 66.4098C45.7473 65.7481 45.951 64.4755 45.2892 63.5592L41.8956 58.876C41.2338 57.9597 39.9612 57.7561 39.0449 58.4178C38.1287 59.0796 37.925 60.3522 38.5868 61.2685L41.9804 65.9517Z" fill="#18DEBF"/>
</svg>
