<svg width="50" height="79" viewBox="0 0 50 79" fill="none" xmlns="http://www.w3.org/2000/svg">
<path d="M24.6335 78.2673C24.83 78.2673 25.0182 78.1894 25.1571 78.0507C25.296 77.9119 25.3741 77.7238 25.3741 77.5276V46.8407C25.3765 46.7421 25.3591 46.644 25.323 46.5521C25.2868 46.4603 25.2326 46.3766 25.1636 46.306C25.0946 46.2354 25.0122 46.1793 24.9212 46.141C24.8301 46.1027 24.7323 46.083 24.6335 46.083V46.083C24.4323 46.083 24.2393 46.1628 24.097 46.3049C23.9547 46.447 23.8748 46.6398 23.8748 46.8407V77.5096C23.8747 77.6082 23.8945 77.7059 23.9329 77.7968C23.9712 77.8878 24.0273 77.9702 24.098 78.0391C24.1687 78.108 24.2526 78.1621 24.3446 78.1982C24.4365 78.2343 24.5348 78.2516 24.6335 78.2492V78.2673Z" fill="#40543E"/>
<path d="M24.5973 68.0383C24.6662 67.9696 24.7207 67.888 24.758 67.7983C24.7952 67.7085 24.8144 67.6123 24.8144 67.5151C24.8144 67.4179 24.7952 67.3217 24.758 67.232C24.7207 67.1422 24.6662 67.0607 24.5973 66.992L19.7381 62.1391C19.669 62.0676 19.5862 62.0108 19.4946 61.9719C19.4031 61.9331 19.3047 61.9131 19.2052 61.9131C19.1058 61.9131 19.0072 61.9331 18.9157 61.9719C18.8241 62.0108 18.7413 62.0676 18.6722 62.1391C18.5321 62.2809 18.4536 62.472 18.4536 62.6713C18.4536 62.8705 18.5321 63.0617 18.6722 63.2035L23.5315 68.0383C23.6006 68.1098 23.6834 68.1666 23.775 68.2055C23.8665 68.2443 23.965 68.2643 24.0645 68.2643C24.1639 68.2643 24.2623 68.2443 24.3539 68.2055C24.4455 68.1666 24.5283 68.1098 24.5973 68.0383V68.0383Z" fill="#40543E"/>
<path d="M5.77444 49.2403C6.77116 47.1283 8.41568 45.3882 10.4695 44.2727C12.5234 43.1571 14.8797 42.724 17.1966 43.0362C19.5136 43.3484 21.6708 44.3897 23.3551 46.009C25.0395 47.6283 26.1635 49.7413 26.5641 52.0417C26.9647 54.3421 26.621 56.7101 25.5829 58.8022C24.5449 60.8944 22.8664 62.6018 20.791 63.6769C18.7157 64.752 16.3513 65.1388 14.0409 64.7813C11.7305 64.4237 9.59425 63.3403 7.94205 61.6883C6.34653 60.0856 5.28289 58.0319 4.89516 55.8053C4.50742 53.5787 4.8144 51.2869 5.77444 49.2403V49.2403Z" fill="#40543E"/>
<path d="M20.4066 63.8711C18.3569 64.8342 16.0595 65.1419 13.8282 64.7522C11.5968 64.3625 9.54033 63.2944 7.93957 61.6937C6.3388 60.0931 5.27176 58.038 4.88429 55.809C4.49683 53.5801 4.80783 51.2861 5.77471 49.2402L20.4066 63.8711Z" fill="#4E7678"/>
<path d="M24.6876 68.0383C24.6165 67.9709 24.56 67.8898 24.5213 67.7998C24.4826 67.7099 24.4626 67.613 24.4626 67.5151C24.4626 67.4172 24.4826 67.3204 24.5213 67.2305C24.56 67.1405 24.6165 67.0594 24.6876 66.992L29.5287 62.1391C29.5978 62.0676 29.6806 62.0108 29.7722 61.9719C29.8637 61.9331 29.9621 61.9131 30.0616 61.9131C30.1611 61.9131 30.2596 61.9331 30.3511 61.9719C30.4427 62.0108 30.5255 62.0676 30.5946 62.1391V62.1391C30.7347 62.2809 30.8132 62.472 30.8132 62.6713C30.8132 62.8705 30.7347 63.0617 30.5946 63.2035L25.7353 68.0383C25.6676 68.1121 25.5853 68.1711 25.4935 68.2114C25.4018 68.2517 25.3026 68.2726 25.2023 68.2726C25.1021 68.2726 25.003 68.2517 24.9113 68.2114C24.8195 68.1711 24.7372 68.1121 24.6695 68.0383H24.6876Z" fill="#40543E"/>
<path d="M43.5286 49.2403C42.5349 47.1215 40.8909 45.3742 38.8353 44.2519C36.7796 43.1297 34.4194 42.6909 32.0971 42.9994C29.7749 43.3078 27.6115 44.3474 25.921 45.9672C24.2305 47.5871 23.1009 49.7028 22.6963 52.0072C22.2916 54.3117 22.633 56.6851 23.6707 58.7827C24.7084 60.8803 26.3885 62.593 28.4671 63.6722C30.5457 64.7514 32.9147 65.1408 35.23 64.7841C37.5454 64.4273 39.6866 63.3429 41.3429 61.6883C42.9414 60.0876 44.0084 58.0349 44.3994 55.8082C44.7904 53.5815 44.4864 51.2886 43.5286 49.2403V49.2403Z" fill="#40543E"/>
<path d="M28.8785 63.8711C30.9289 64.829 33.2249 65.133 35.4544 64.7417C37.6838 64.3505 39.7386 63.2831 41.3392 61.6846C42.9398 60.0861 44.0086 58.034 44.4003 55.8075C44.7921 53.581 44.4877 51.2879 43.5285 49.2402L28.8785 63.8711Z" fill="#4E7678"/>
<path d="M17.4258 38.0189C10.9769 52.1446 -6.05756 30.8027 8.48409 26.7797C-5.96723 30.8388 0.0299884 4.26512 11.6814 12.7983C0.0299884 4.26512 24.6334 -7.56943 24.6334 6.55628C24.6334 -7.56943 49.2187 4.26512 37.5854 12.7983C49.2187 4.26512 55.2883 30.8388 40.7647 26.7797C55.216 30.8388 38.2719 52.1446 31.7326 38.0189C34.5145 44.1165 31.028 47.5623 26.6746 48.4102H22.5018C18.1483 47.5803 14.6439 44.1165 17.4258 38.0189Z" fill="#20E9FD"/>
<path d="M24.6514 5.871C25.4282 -7.17228 49.02 4.40971 37.5854 12.7985C49.2187 4.26539 55.2883 30.839 40.7647 26.7799C55.2161 30.839 38.2719 52.1448 31.7327 38.0191C34.5145 44.1168 31.0281 47.5626 26.6746 48.4105H24.5792L24.6514 5.871Z" fill="#18DEBF"/>
<path d="M33.3765 24.3082C33.3765 22.577 32.8622 20.8846 31.8987 19.4453C30.9353 18.0061 29.5659 16.8846 27.964 16.2229C26.362 15.5612 24.5995 15.389 22.8995 15.728C21.1995 16.0671 19.6385 16.9022 18.4139 18.1277C17.1894 19.3531 16.3564 20.9139 16.0204 22.6123C15.6844 24.3108 15.8605 26.0706 16.5264 27.6691C17.1922 29.2676 18.318 30.6328 19.7611 31.592C21.2043 32.5513 22.9 33.0614 24.6335 33.0578C26.954 33.0531 29.1777 32.1292 30.8168 30.4888C32.4559 28.8484 33.3765 26.6257 33.3765 24.3082V24.3082Z" fill="white"/>
<path d="M24.6514 15.5586C26.975 15.5586 29.2034 16.4804 30.8465 18.1213C32.4895 19.7622 33.4125 21.9877 33.4125 24.3082C33.4125 26.6288 32.4895 28.8543 30.8465 30.4951C29.2034 32.136 26.975 33.0578 24.6514 33.0578V15.5586Z" fill="#7DFB68"/>
</svg>
