<svg width="76" height="70" viewBox="0 0 76 70" fill="none" xmlns="http://www.w3.org/2000/svg">
<path d="M63.4956 26.5635H11.9044C10.9365 26.5635 9.97809 26.7538 9.0839 27.1237C8.18971 27.4936 7.37724 28.0358 6.69286 28.7193C6.00847 29.4028 5.4656 30.2142 5.09521 31.1072C4.72483 32.0002 4.53418 32.9573 4.53418 33.9239V61.7784C4.53418 63.7306 5.31068 65.6028 6.69286 66.9831C8.07503 68.3635 9.94966 69.139 11.9044 69.139H63.4956C65.4503 69.139 67.3249 68.3635 68.7071 66.9831C70.0892 65.6028 70.8657 63.7306 70.8657 61.7784V33.9239C70.8657 32.9573 70.6751 32.0002 70.3047 31.1072C69.9343 30.2142 69.3914 29.4028 68.7071 28.7193C68.0227 28.0358 67.2102 27.4936 66.316 27.1237C65.4218 26.7538 64.4634 26.5635 63.4956 26.5635ZM15.8423 60.8404C15.7928 61.3828 15.5421 61.887 15.1393 62.2542C14.7366 62.6214 14.2109 62.825 13.6656 62.825C13.1203 62.825 12.5946 62.6214 12.1919 62.2542C11.7892 61.887 11.5384 61.3828 11.4889 60.8404V42.2586C11.5384 41.7162 11.7892 41.212 12.1919 40.8448C12.5946 40.4776 13.1203 40.274 13.6656 40.274C14.2109 40.274 14.7366 40.4776 15.1393 40.8448C15.5421 41.212 15.7928 41.7162 15.8423 42.2586V60.8404ZM27.855 60.8404C27.8055 61.3828 27.5547 61.887 27.152 62.2542C26.7493 62.6214 26.2236 62.825 25.6783 62.825C25.1329 62.825 24.6073 62.6214 24.2045 62.2542C23.8018 61.887 23.5511 61.3828 23.5015 60.8404V42.2586C23.5511 41.7162 23.8018 41.212 24.2045 40.8448C24.6073 40.4776 25.1329 40.274 25.6783 40.274C26.2236 40.274 26.7493 40.4776 27.152 40.8448C27.5547 41.212 27.8055 41.7162 27.855 42.2586V60.8404ZM39.8677 60.8404C39.8181 61.3828 39.5674 61.887 39.1646 62.2542C38.7619 62.6214 38.2363 62.825 37.6909 62.825C37.1456 62.825 36.6199 62.6214 36.2172 62.2542C35.8145 61.887 35.5637 61.3828 35.5142 60.8404V42.2586C35.5637 41.7162 35.8145 41.212 36.2172 40.8448C36.6199 40.4776 37.1456 40.274 37.6909 40.274C38.2363 40.274 38.7619 40.4776 39.1646 40.8448C39.5674 41.212 39.8181 41.7162 39.8677 42.2586V60.8404ZM51.8803 60.8404C51.8308 61.3828 51.5801 61.887 51.1773 62.2542C50.7746 62.6214 50.2489 62.825 49.7036 62.825C49.1583 62.825 48.6326 62.6214 48.2299 62.2542C47.8271 61.887 47.5764 61.3828 47.5269 60.8404V42.2586C47.5764 41.7162 47.8271 41.212 48.2299 40.8448C48.6326 40.4776 49.1583 40.274 49.7036 40.274C50.2489 40.274 50.7746 40.4776 51.1773 40.8448C51.5801 41.212 51.8308 41.7162 51.8803 42.2586V60.8404ZM63.893 60.8404C63.8435 61.3828 63.5927 61.887 63.19 62.2542C62.7872 62.6214 62.2616 62.825 61.7162 62.825C61.1709 62.825 60.6453 62.6214 60.2425 62.2542C59.8398 61.887 59.589 61.3828 59.5395 60.8404V42.2586C59.589 41.7162 59.8398 41.212 60.2425 40.8448C60.6453 40.4776 61.1709 40.274 61.7162 40.274C62.2616 40.274 62.7872 40.4776 63.19 40.8448C63.5927 41.212 63.8435 41.7162 63.893 42.2586V60.8404Z" fill="#40543E"/>
<path d="M2.33028 23.6768H73.0875C73.7008 23.6768 74.2889 23.9201 74.7225 24.3532C75.1561 24.7862 75.3998 25.3736 75.3998 25.986V33.0398C75.3998 33.6522 75.1561 34.2396 74.7225 34.6726C74.2889 35.1057 73.7008 35.349 73.0875 35.349H2.33028C1.71225 35.349 1.11953 35.1038 0.682519 34.6673C0.245507 34.2309 0 33.639 0 33.0218V25.9679C0.00948555 25.357 0.259169 24.7743 0.695157 24.3457C1.13114 23.917 1.71846 23.6767 2.33028 23.6768Z" fill="#4E7678"/>
<path d="M15.2101 30.0089C14.6328 30.0056 14.0677 29.8426 13.5774 29.5381C13.0872 29.2336 12.691 28.7994 12.4329 28.2837C12.1747 27.768 12.0645 27.191 12.1147 26.6167C12.1649 26.0423 12.3735 25.493 12.7172 25.0297L30.3478 1.43285C30.8413 0.767789 31.5791 0.325708 32.3989 0.203911C33.2187 0.0821142 34.0534 0.290495 34.7193 0.783312C35.3853 1.27613 35.8279 2.01295 35.9499 2.8317C36.0718 3.65044 35.8631 4.48413 35.3697 5.14919L17.721 28.7822C17.4313 29.175 17.053 29.4941 16.6167 29.7135C16.1805 29.9329 15.6985 30.0465 15.2101 30.045V30.0089Z" fill="#BAE983"/>
<path d="M60.1718 30.0089C60.8252 29.9922 61.457 29.7715 61.9782 29.3775C62.3079 29.1353 62.5862 28.8301 62.7968 28.4795C63.0074 28.129 63.1461 27.7401 63.2049 27.3356C63.2638 26.9311 63.2415 26.5189 63.1394 26.1231C63.0374 25.7272 62.8575 25.3555 62.6104 25.0297L44.9798 1.43278C44.7482 1.07307 44.4449 0.764704 44.089 0.526904C43.733 0.289104 43.3319 0.126874 42.9106 0.0503459C42.4892 -0.0261817 42.0566 -0.0153522 41.6396 0.0820577C41.2226 0.179468 40.8302 0.361418 40.4865 0.616644C40.1429 0.87187 39.8554 1.19488 39.642 1.56569C39.4286 1.93649 39.2938 2.34715 39.2459 2.77217C39.198 3.19718 39.2381 3.62746 39.3637 4.03634C39.4893 4.44523 39.6978 4.82403 39.976 5.14912L57.6789 28.7821C57.9658 29.1735 58.341 29.4918 58.7741 29.7112C59.2073 29.9307 59.6861 30.045 60.1718 30.045V30.0089Z" fill="#BAE983"/>
</svg>
