<svg width="52" height="68" viewBox="0 0 52 68" fill="none" xmlns="http://www.w3.org/2000/svg">
<path d="M32.7335 44.2305H18.275V49.1322H32.7335V44.2305Z" fill="#18DEBF"/>
<path d="M10.4939 0C9.67148 2.6647 9.2439 5.49387 9.2439 8.4382C9.2439 19.903 15.922 29.7723 25.5117 34.2299C35.1177 29.7723 41.7795 19.903 41.7795 8.4382C41.7795 5.49387 41.3354 2.6647 40.5294 0H10.5104H10.4939Z" fill="#18DEBF"/>
<path d="M22.4691 29.4932L20.7584 29.3123C8.93178 28.0457 0 17.354 0 4.44171C0 3.9647 0.016497 3.47123 0.0493945 2.99421L0.131618 1.53027H22.4855V29.4768L22.4691 29.4932ZM3.09238 4.63909C3.17462 15.2321 10.0338 24.0816 19.3602 25.9567V4.63909H3.09238Z" fill="#18DEBF"/>
<path d="M28.5566 29.4932V1.53027H50.9105L50.9763 2.99421C51.0092 3.47123 51.0256 3.94826 51.0256 4.42527C51.0256 17.3376 42.1104 28.0293 30.2673 29.2958L28.5566 29.4768V29.4932ZM31.649 4.63909V25.9567C40.9755 24.0651 47.8345 15.2321 47.9168 4.63909H31.649Z" fill="#18DEBF"/>
<path d="M27.8466 28.2764H23.1915V47.653H27.8466V28.2764Z" fill="#18DEBF"/>
<path d="M38.1446 49.2649V47.7023C38.1446 46.6825 37.4373 45.8271 36.5984 45.8271H14.4419C13.5866 45.8271 12.8958 46.666 12.8958 47.7023V49.2649H38.1446V49.2649Z" fill="#18DEBF"/>
<path d="M10.4939 0C9.67148 2.6647 9.2439 5.49387 9.2439 8.4382C9.2439 18.949 14.8693 28.1109 23.1924 32.9962V44.2307H25.3472V0H10.5104H10.4939Z" fill="#20E9FD"/>
<path d="M18.2744 45.8428H14.4253C13.57 45.8428 12.8792 46.6817 12.8792 47.7179V49.2806H25.3309V45.8592H18.2744V45.8428Z" fill="#20E9FD"/>
<path d="M26.6146 44.2305H18.275V45.8424H26.6146V44.2305Z" fill="#18DEBF"/>
<path d="M41.3178 49.0828H9.68677V64.6762H41.3178V49.0828Z" fill="#4E7678"/>
<path d="M37.6189 52.7832H13.4062V60.9582H37.6189V52.7832Z" fill="#15C5AA"/>
<path d="M42.5689 63.9683H8.43774V67.7515H42.5689V63.9683Z" fill="#40543E"/>
</svg>
