<svg width="71" height="55" viewBox="0 0 71 55" fill="none" xmlns="http://www.w3.org/2000/svg">
<path d="M67.1423 19.2428L54.8234 48.2074H34.4447C34.4786 45.5604 34.7841 42.8115 35.378 40.0118C38.6699 24.4859 49.6143 13.253 59.846 14.8989C60.8981 15.0686 61.8992 15.3571 62.8325 15.7813C62.3574 13.5076 64.0542 11.3017 66.6673 10.8435C68.0417 10.606 69.3821 10.8945 70.4341 11.5563L67.1593 19.2428H67.1423Z" fill="#20E9FD"/>
<path d="M3.30757 19.2428L15.6264 48.2074H36.0052C35.9713 45.5604 35.6657 42.8115 35.0719 40.0118C31.78 24.4859 20.8356 13.253 10.6038 14.8989C9.55182 15.0686 8.55068 15.3571 7.61744 15.7813C8.09254 13.5076 6.39572 11.3017 3.78262 10.8435C2.4082 10.606 1.06777 10.8945 0.0157471 11.5563L3.29058 19.2428H3.32455H3.30757Z" fill="#18DEBF"/>
<path d="M41.5035 6.27813C41.5035 9.73963 38.7037 12.5564 35.2253 12.5564C31.7468 12.5564 28.947 9.73963 28.947 6.27813C28.947 2.81663 31.7638 0 35.2253 0C38.6868 0 41.5035 2.81663 41.5035 6.27813Z" fill="#20E9FD"/>
<path d="M50.6147 48.207C51.2934 45.0679 51.6837 41.6572 51.6837 38.1109C51.6837 22.3305 44.3195 9.53662 35.2246 9.53662C26.1297 9.53662 18.7655 22.3305 18.7655 38.1109C18.7655 41.6742 19.1388 45.0679 19.8345 48.207H50.6147V48.207Z" fill="#20E9FD"/>
<path d="M35.2258 8.962e-09C35.0561 8.962e-09 34.8865 -8.6985e-05 34.7168 0.0168811V12.5225C34.8865 12.5225 35.0561 12.5564 35.2258 12.5564C38.7043 12.5564 41.5041 9.73963 41.5041 6.27813C41.5041 2.81663 38.7043 8.962e-09 35.2258 8.962e-09V8.962e-09Z" fill="#18DEBF"/>
<path d="M35.2258 9.53662C35.0561 9.53662 34.8865 9.53664 34.7168 9.55361V48.207H50.6159C51.2947 45.0679 51.6849 41.6572 51.6849 38.1109C51.6849 22.3305 44.3207 9.53662 35.2258 9.53662V9.53662Z" fill="#18DEBF"/>
<path d="M42.506 29.6596C42.506 33.681 39.2481 36.9388 35.2097 36.9388C31.1713 36.9388 27.9135 33.681 27.9135 29.6596C27.9135 25.6381 31.1713 22.3633 35.2097 22.3633C39.2481 22.3633 42.506 25.6211 42.506 29.6596Z" fill="#18DEBF"/>
<path d="M56.792 48.2075L67.5667 19.2429H67.5837L70.4343 11.5734C69.5181 10.9116 68.3473 10.6231 67.1425 10.8606C64.8518 11.3188 63.3756 13.5247 63.7829 15.7984C62.9514 15.3742 62.086 15.0857 61.1697 14.916C52.2445 13.2701 42.6575 24.503 39.7899 40.0288C39.2639 42.8286 39.0094 45.5944 38.9755 48.2245H56.775L56.792 48.2075Z" fill="#18DEBF"/>
<path d="M2.8846 19.2428L13.6424 48.2074H31.442C31.4081 45.5604 31.1535 42.8115 30.6275 40.0118C27.7598 24.4859 18.1899 13.253 9.24765 14.8989C8.33137 15.0686 7.46604 15.3571 6.6346 15.7813C7.0588 13.5076 5.56555 11.3017 3.29182 10.8435C2.10405 10.606 0.916279 10.8945 0 11.5563L2.85063 19.2428H2.86762H2.8846Z" fill="#20E9FD"/>
<path d="M41.5035 29.661C41.5035 33.1225 38.7037 35.9393 35.2253 35.9393C31.7468 35.9393 28.947 33.1225 28.947 29.661C28.947 26.1995 31.7638 23.3828 35.2253 23.3828C38.6868 23.3828 41.5035 26.1995 41.5035 29.661Z" fill="#20E9FD"/>
<path d="M40.1973 29.66C40.1973 32.4089 37.9745 34.6317 35.2257 34.6317C32.4768 34.6317 30.254 32.4089 30.254 29.66C30.254 26.9112 32.4768 24.6714 35.2257 24.6714C37.9745 24.6714 40.1973 26.8942 40.1973 29.66Z" fill="#18DEBF"/>
<path d="M35.2261 24.687C35.0903 24.687 34.9546 24.687 34.8188 24.704V34.6303C34.9546 34.6303 35.0903 34.6473 35.2261 34.6473C37.9749 34.6473 40.1977 32.4245 40.1977 29.6756C40.1977 26.9268 37.9749 24.687 35.2261 24.687Z" fill="#20E9FD"/>
<path d="M56.7929 47.7817H13.4902V54.2806H56.7929V47.7817Z" fill="#20E9FD"/>
<path d="M56.8086 49.8687H32.8328V54.3313H56.8086V49.8687Z" fill="#18DEBF"/>
<path d="M8.82307 29.7963C8.16131 29.7963 7.55043 29.966 6.99048 30.2375L9.87508 37.9749C11.6567 37.4998 12.9973 35.8878 12.9973 33.9534C12.9973 31.6457 11.1307 29.7793 8.82307 29.7793V29.7963Z" fill="#18DEBF"/>
<path d="M8.78881 30.9999C8.29673 30.9999 7.8556 31.1187 7.44836 31.3223L9.56938 37.0405C10.8929 36.6842 11.877 35.4964 11.877 34.0711C11.877 32.3743 10.5026 30.9829 8.78881 30.9829V30.9999Z" fill="#20E9FD"/>
<path d="M61.6117 29.7963C62.2734 29.7963 62.8843 29.966 63.4443 30.2375L60.5597 37.9749C58.778 37.4998 57.4545 35.8878 57.4545 33.9534C57.4545 31.6457 59.321 29.7793 61.6117 29.7793V29.7963Z" fill="#20E9FD"/>
<path d="M61.6456 30.9999C62.1376 30.9999 62.5788 31.1187 63.003 31.3223L60.882 37.0405C59.5585 36.6842 58.5743 35.4964 58.5743 34.0711C58.5743 32.3743 59.9488 30.9829 61.6456 30.9829V30.9999Z" fill="#18DEBF"/>
</svg>
