<svg width="73" height="73" viewBox="0 0 73 73" fill="none" xmlns="http://www.w3.org/2000/svg">
<path fill-rule="evenodd" clip-rule="evenodd" d="M50.6042 26.3804L33.5709 43.4137L22.3988 32.2417C21.9217 31.7211 21.6639 31.0364 21.6793 30.3303C21.6946 29.6243 21.982 28.9515 22.4813 28.4521C22.9807 27.9528 23.6535 27.6654 24.3595 27.6501C25.0656 27.6347 25.7503 27.8925 26.2709 28.3696L33.5709 35.6696L46.7322 22.5084C46.9864 22.2541 47.2882 22.0524 47.6204 21.9148C47.9526 21.7772 48.3086 21.7064 48.6682 21.7064C49.0277 21.7064 49.3838 21.7772 49.716 21.9148C50.0481 22.0524 50.35 22.2541 50.6042 22.5084C50.8584 22.7626 51.0601 23.0644 51.1977 23.3966C51.3353 23.7288 51.4061 24.0848 51.4061 24.4444C51.4061 24.8039 51.3353 25.16 51.1977 25.4921C51.0601 25.8243 50.8584 26.1262 50.6042 26.3804ZM64.3221 32.1504C64.6072 31.8652 64.7674 31.4785 64.7674 31.0752C64.7674 30.6719 64.6072 30.2852 64.3221 30L59.9117 25.5896C59.7226 25.401 59.5867 25.1658 59.5178 24.9078C59.4489 24.6498 59.4494 24.3782 59.5193 24.1204L61.1314 18.0979C61.2354 17.7083 61.1804 17.2933 60.9785 16.9442C60.7766 16.5951 60.4443 16.3406 60.0547 16.2364L54.0322 14.6244C53.7735 14.5551 53.5377 14.4188 53.3487 14.2292C53.1596 14.0396 53.024 13.8034 52.9554 13.5446L51.3433 7.52206C51.2385 7.13223 50.9833 6.7999 50.6338 6.59803C50.2842 6.39616 49.8688 6.34123 49.4788 6.44531L43.4533 8.06044C43.1957 8.12939 42.9245 8.12914 42.6671 8.05971C42.4097 7.99028 42.1751 7.85413 41.9872 7.66502L37.5767 3.25461C37.2916 2.96949 36.9048 2.80933 36.5015 2.80933C36.0982 2.80933 35.7115 2.96949 35.4263 3.25461L31.0159 7.66806C30.8271 7.85691 30.592 7.99283 30.3342 8.06223C30.0764 8.13163 29.8048 8.13206 29.5467 8.06348L23.5243 6.44531C23.3311 6.39336 23.1296 6.38001 22.9313 6.40603C22.733 6.43205 22.5418 6.49692 22.3686 6.59694C22.1954 6.69695 22.0437 6.83015 21.922 6.98889C21.8004 7.14764 21.7112 7.32882 21.6597 7.52206L20.0446 13.5446C19.9758 13.8025 19.8404 14.0378 19.652 14.2268C19.4635 14.4158 19.2286 14.5518 18.9709 14.6213L12.9453 16.2364C12.5563 16.3412 12.2247 16.5961 12.0234 16.9451C11.8221 17.2941 11.7675 17.7087 11.8716 18.0979L13.4837 24.1204C13.5536 24.3782 13.5541 24.6498 13.4852 24.9078C13.4163 25.1658 13.2804 25.401 13.0913 25.5896L8.68092 30C8.53938 30.141 8.42708 30.3086 8.35045 30.4931C8.27382 30.6776 8.23438 30.8754 8.23438 31.0752C8.23438 31.275 8.27382 31.4728 8.35045 31.6573C8.42708 31.8419 8.53938 32.0094 8.68092 32.1504L13.0913 36.5609C13.2804 36.7501 13.4163 36.9858 13.4852 37.2443C13.5541 37.5027 13.5536 37.7748 13.4837 38.033L11.8716 44.0555C11.7675 44.4447 11.8221 44.8594 12.0234 45.2084C12.2247 45.5574 12.5563 45.8123 12.9453 45.917L18.9709 47.5321C19.2286 47.6016 19.4635 47.7377 19.652 47.9267C19.8404 48.1157 19.9758 48.351 20.0446 48.6089L21.6567 54.6314C21.71 54.8266 21.8018 55.0092 21.9266 55.1685C22.0515 55.3278 22.2068 55.4606 22.3836 55.5591L16.7231 70.8192H32.488L36.5 59.9969L40.518 70.8192H56.28L50.6194 55.5591C50.7962 55.461 50.9514 55.3283 51.0758 55.1689C51.2001 55.0095 51.2911 54.8267 51.3433 54.6314L52.9554 48.6089C53.0241 48.3505 53.1599 48.1148 53.349 47.9257C53.5381 47.7366 53.7737 47.6009 54.0322 47.5321L60.0547 45.9201C60.2479 45.8685 60.4291 45.7794 60.5878 45.6577C60.7466 45.5361 60.8798 45.3843 60.9798 45.2111C61.0798 45.0379 61.1447 44.8467 61.1707 44.6484C61.1967 44.4501 61.1834 44.2487 61.1314 44.0555L59.5193 38.033C59.4494 37.7753 59.4489 37.5037 59.5178 37.2457C59.5867 36.9877 59.7226 36.7525 59.9117 36.5639L64.3221 32.1535V32.1504Z" fill="white"/>
</svg>
