<svg width="71" height="77" viewBox="0 0 71 77" fill="none" xmlns="http://www.w3.org/2000/svg">
<path d="M31.9915 15.7675C35.9476 17.3912 36.8508 17.1386 40.1926 15.7675C48.0505 12.3218 56.4505 14.8655 55.186 30.0556C54.3911 37.7228 50.4712 44.3798 41.403 44.3978C39.6279 44.4008 37.8622 44.1394 36.1644 43.6221C34.4635 44.1555 32.6904 44.4232 30.9077 44.4159C21.8757 44.4159 17.9015 37.795 17.0705 30.1278C15.8422 14.9377 24.1336 12.3579 31.9915 15.7675Z" fill="#18DEBF"/>
<path d="M26.3918 0.0180664C33.491 1.49739 38.4767 7.39661 37.6999 13.7829C37.707 13.9212 37.707 14.0597 37.6999 14.1979C37.3307 13.2193 36.8712 12.2771 36.3271 11.3836C35.2968 9.69287 33.983 8.19167 32.4433 6.94561C33.5457 9.68419 34.8499 12.3374 36.3451 14.8834C35.6253 14.9738 34.8972 14.9738 34.1775 14.8834C31.4878 14.4783 29.0691 13.0232 27.4534 10.8378C25.8376 8.65242 25.1569 5.91571 25.5608 3.22927C25.6801 2.12423 25.9601 1.04246 26.3918 0.0180664V0.0180664Z" fill="#40543E"/>
<path d="M32.371 6.9456C33.4735 9.68418 34.7776 12.3374 36.2728 14.8834C35.5531 14.9738 34.8248 14.9738 34.1051 14.8834C31.4154 14.4783 28.9969 13.0232 27.3811 10.8378C25.7653 8.65242 25.0846 5.91571 25.4886 3.22926C25.6292 2.11438 25.9335 1.02626 26.3918 0L32.371 6.9456Z" fill="#4E7678"/>
<path d="M45.4494 7.14401C45.456 8.81593 44.8617 10.4347 43.7743 11.706C42.687 12.9773 41.1789 13.8167 39.5243 14.0716C39.3325 13.4898 39.2409 12.8798 39.2535 12.2675C39.2725 10.9898 39.7435 9.76002 40.5832 8.79589C41.423 7.83176 42.5773 7.19548 43.8417 6.99969C44.3819 6.96484 44.9242 7.01353 45.4494 7.14401V7.14401Z" fill="#40543E"/>
<path d="M36.1102 16.8861C34.6859 16.7691 33.2956 16.3899 32.0096 15.7676C24.1336 12.3579 15.7518 14.9377 17.0886 30.1098C17.9195 37.777 21.8755 44.4159 30.9257 44.3978C32.6832 44.4037 34.4315 44.1421 36.1102 43.6221V16.8861Z" fill="#20E9FD"/>
<path d="M64.3445 67.1289H0V76.8527H64.3445V67.1289Z" fill="#20E9FD"/>
<path d="M7.58694 69.7264V74.2726H4.8954V69.7264H7.58694ZM9.39336 67.9224H3.08899V75.9323H9.2669V67.9224H9.39336Z" fill="#4E7678"/>
<path d="M59.431 69.7264V74.2726H56.7395V69.7264H59.431ZM61.2375 67.9224H55.0776V75.9323H61.2375V67.9224Z" fill="#4E7678"/>
<path d="M50.8144 69.7264V74.2726H13.512V69.7264H50.8144ZM52.6209 67.9224H11.7778V75.9323H52.5486V67.9224H52.6209Z" fill="#4E7678"/>
<path d="M62.249 45.083H3.26965V54.8068H62.249V45.083Z" fill="#4E7678"/>
<path d="M8.6346 45.083H8.03845V54.8068H8.6346V45.083Z" fill="#18DEBF"/>
<path d="M58.3472 45.083H57.7511V54.8068H58.3472V45.083Z" fill="#18DEBF"/>
<path d="M54.644 47.4283V52.4797H10.8746V47.4283H54.644ZM55.2401 46.833H10.3146V53.075H55.2763V46.833H55.2401Z" fill="white"/>
<path d="M70.4141 55.1138H13.1508V66.6236H70.4141V55.1138Z" fill="#18DEBF"/>
<path d="M26.3555 55.1138H16.7273V66.6236H26.3555V55.1138Z" fill="white"/>
<path d="M30.149 55.1138H28.3606V66.6236H30.149V55.1138Z" fill="white"/>
<path d="M67.8309 64.2422H60.4788V57.4951H67.8309V64.2422ZM61.6709 63.0696H66.6386V58.6858H61.6709V63.0696Z" fill="#20E9FD"/>
</svg>
