<svg width="24" height="24" viewBox="0 0 24 24" fill="none" xmlns="http://www.w3.org/2000/svg">
<path fill-rule="evenodd" clip-rule="evenodd" d="M8.62505 3.8999C8.80231 3.89981 8.97784 3.93475 9.14156 4.00271C9.30528 4.07067 9.45396 4.17031 9.57905 4.2959L16.329 11.0459C16.4545 11.1713 16.5539 11.3201 16.6218 11.4839C16.6897 11.6477 16.7246 11.8233 16.7246 12.0007C16.7246 12.178 16.6897 12.3536 16.6218 12.5174C16.5539 12.6812 16.4545 12.83 16.329 12.9554L9.57905 19.7054C9.45467 19.8351 9.30564 19.9387 9.1407 20.0101C8.97576 20.0814 8.79823 20.1192 8.61852 20.121C8.43881 20.1229 8.26054 20.0888 8.09416 20.0209C7.92779 19.9529 7.77665 19.8524 7.64962 19.7253C7.52259 19.5982 7.42222 19.447 7.3544 19.2805C7.28658 19.1141 7.25268 18.9358 7.25467 18.7561C7.25667 18.5764 7.29453 18.3989 7.36602 18.234C7.43752 18.0691 7.54123 17.9202 7.67105 17.7959L13.4655 11.9999L7.67105 6.2054C7.48197 6.01668 7.35314 5.77611 7.30085 5.51414C7.24856 5.25217 7.27517 4.98057 7.37731 4.73373C7.47946 4.48688 7.65254 4.27589 7.87465 4.12746C8.09676 3.97903 8.35791 3.89984 8.62505 3.8999Z" fill="#8B95A1"/>
</svg>
