<svg width="24" height="24" viewBox="0 0 24 24" fill="none" xmlns="http://www.w3.org/2000/svg">
<path fill-rule="evenodd" clip-rule="evenodd" d="M3.8999 15.375C3.89981 15.1977 3.93475 15.0222 4.00271 14.8584C4.07067 14.6947 4.17031 14.546 4.2959 14.421L11.0459 7.67095C11.1713 7.54555 11.3201 7.44607 11.4839 7.3782C11.6477 7.31032 11.8233 7.27539 12.0007 7.27539C12.178 7.27539 12.3536 7.31032 12.5174 7.3782C12.6812 7.44607 12.83 7.54555 12.9554 7.67095L19.7054 14.421C19.8351 14.5453 19.9387 14.6944 20.0101 14.8593C20.0814 15.0242 20.1192 15.2018 20.121 15.3815C20.1229 15.5612 20.0888 15.7395 20.0209 15.9058C19.9529 16.0722 19.8524 16.2233 19.7253 16.3504C19.5982 16.4774 19.447 16.5778 19.2805 16.6456C19.1141 16.7134 18.9358 16.7473 18.7561 16.7453C18.5764 16.7433 18.3989 16.7055 18.234 16.634C18.0691 16.5625 17.9202 16.4588 17.7959 16.329L11.9999 10.5345L6.2054 16.329C6.01668 16.518 5.77611 16.6469 5.51414 16.6992C5.25217 16.7514 4.98057 16.7248 4.73373 16.6227C4.48688 16.5205 4.27589 16.3475 4.12746 16.1254C3.97903 15.9032 3.89984 15.6421 3.8999 15.375Z" fill="#8B95A1"/>
</svg>
